<?xml version="1.0" encoding="utf-8"?><svg version="1.1" xmlns="http://www.w3.org/2000/svg" xmlns:xlink="http://www.w3.org/1999/xlink" x="0px" y="0px" viewBox="0 0 566.9 144.6" style="enable-background:new 0 0 566.9 144.6;" xml:space="preserve"><style>.st0{fill:#194D8C}.st1{fill:#FFFFFF}</style><g id="Слой_1"><g><path class="st0" d="M211.7,57.9h-24.6l-2.8,6.3c-1.3,2.7-1.9,5.1-1.9,7.2s0.8,3.9,2.3,5.2c1.5,1.3,3.5,2,5.8,2v3.5H157v-3.5c2.6-0.2,5.1-1.2,7.5-3.1s4.7-5.2,7.1-10.1l29.8-61.3h18.7l31.6,67.8c1.1,2.4,2.2,4,3.4,4.9c1.2,0.9,2.6,1.5,4.3,1.9v3.5h-45.5v-3.5c3.3,0,5-1.1,5-3.3c0-0.9-0.4-2.1-1.1-3.8L211.7,57.9z M208.8,51l-9.2-21l-9.3,21H208.8z M335.3,6.1l1.4,21.6h-5.3c-0.6-2.3-1.7-4.6-3.5-6.8s-4.5-4.1-8.1-5.6s-8.1-2.2-13.5-2.2h-3.8v56.2c0,6.3,1.9,9.5,5.8,9.5h4.6v3.5h-51.6v-3.5h2.7c3.9,0,5.8-3.1,5.8-9.5V19c0-6.3-1.9-9.4-5.8-9.4h-2.7V6.1H335.3z M390.5,57.9h-24.6l-2.8,6.3c-1.3,2.7-1.9,5.1-1.9,7.2s0.8,3.9,2.3,5.2c1.5,1.3,3.5,2,5.8,2v3.5h-33.4v-3.5c2.6-0.2,5.1-1.2,7.5-3.1s4.7-5.2,7.1-10.1l29.8-61.3H399l31.6,67.8c1.1,2.4,2.2,4,3.4,4.9c1.2,0.9,2.6,1.5,4.3,1.9v3.5h-45.5v-3.5c3.3,0,5-1.1,5-3.3c0-0.9-0.4-2.1-1.1-3.8L390.5,57.9z M387.5,51l-9.2-21L369,51H387.5z M456.2,82.1v-3.5h3.8c2.9,0,4.7-0.8,5.5-2.3s1.2-3.9,1.2-7.2V13h-1.9c-6.4,0-11.6,1.4-15.6,4.2s-6.5,6.3-7.6,10.5h-5.3l1.2-21.6h90.9l1.2,21.6h-5.3c-0.7-2.8-2-5.2-4-7.4s-4.6-4-7.9-5.3c-3.3-1.3-7-2-11.4-2h-1.9v56.2c0,3.5,0.4,5.9,1.3,7.4c0.9,1.4,2.8,2.1,5.7,2.1h3.4v3.5h-53.3V82.1z"/><path class="st0" d="M188.6,128.2l4,1.8c-0.6,3.2-1.7,5.6-3.1,7.1c-1.4,1.5-3.3,2.4-5.5,2.4c-2.7,0-5-1.3-6.8-4c-1.8-2.6-2.6-6.3-2.6-10.9c0-4.9,0.9-8.6,2.7-11.3c1.8-2.7,4.1-4,7-4c2.5,0,4.6,1,6.2,3.2c0.9,1.2,1.6,3,2.1,5.4l-4.1,1.4c-0.2-1.5-0.8-2.8-1.5-3.6c-0.8-0.8-1.7-1.3-2.8-1.3c-1.5,0-2.8,0.8-3.7,2.3c-1,1.6-1.4,4.1-1.4,7.5c0,3.7,0.5,6.3,1.4,7.9c0.9,1.5,2.2,2.4,3.7,2.4c1.1,0,2.1-0.5,2.9-1.5C187.7,131.9,188.2,130.3,188.6,128.2z M196.3,109.7h3.9v19.4l8.4-19.4h4.2V139h-3.9v-19.1l-8.4,19.1h-4.2V109.7z M230.2,128.2l4,1.8c-0.6,3.2-1.7,5.6-3.1,7.1c-1.4,1.5-3.3,2.4-5.5,2.4c-2.7,0-5-1.3-6.8-4c-1.8-2.6-2.6-6.3-2.6-10.9c0-4.9,0.9-8.6,2.7-11.3c1.8-2.7,4.1-4,7-4c2.5,0,4.6,1,6.2,3.2c0.9,1.2,1.6,3,2.1,5.4l-4.1,1.4c-0.2-1.5-0.8-2.8-1.5-3.6c-0.8-0.8-1.7-1.3-2.8-1.3c-1.5,0-2.8,0.8-3.7,2.3c-1,1.6-1.4,4.1-1.4,7.5c0,3.7,0.5,6.3,1.4,7.9c0.9,1.5,2.2,2.4,3.7,2.4c1.1,0,2.1-0.5,2.9-1.5C229.2,131.9,229.8,130.3,230.2,128.2z M241.7,139v-24.3h-6.1v-4.9H252v4.9h-6.1V139H241.7z M254.7,139v-29.2H270v4.9h-11.1v6.5h10.4v4.9h-10.4v8h11.5v4.9H254.7z M273.9,139v-29.2h6.2l3.7,20l3.7-20h6.3V139H290v-23l-4.1,23h-4l-4.1-23v23H273.9z M298.1,109.7h4.2v11.6h5.6c1.5,0,2.7,0.3,3.8,0.9c1.1,0.5,1.9,1.5,2.6,3s1.1,3.1,1.1,5.1s-0.4,3.6-1.1,5.1s-1.5,2.4-2.4,2.9c-0.9,0.4-2.2,0.7-3.9,0.7h-9.7v-29.3H298.1z M302.3,134h4.1c1.3,0,2.2-0.1,2.7-0.3s1-0.6,1.4-1.2c0.4-0.6,0.6-1.4,0.6-2.4c0-1.3-0.3-2.2-1-2.9c-0.7-0.6-1.8-1-3.5-1h-4.2v7.8H302.3z M317.7,109.7h4.2V139h-4.2V109.7z M332.2,109.7h4.7l4.8,15.2l4.1-15.2h4.3l-7,22.2c-0.8,2.4-1.5,4.2-2.3,5.5s-1.8,1.9-3.1,1.9c-1.2,0-2.2-0.1-2.9-0.3v-4.4c0.6,0.1,1.1,0.1,1.6,0.1c1,0,1.7-0.3,2.1-0.8s0.8-1.6,1.2-3.2L332.2,109.7z M352.3,109.7h16.4V139h-4.2v-24.4h-8.1V139h-4.2v-29.3H352.3z M373,139v-29.2h6.7c2.5,0,4.2,0.1,5,0.4c1.2,0.4,2.2,1.3,3,2.8s1.2,3.4,1.2,5.7c0,1.8-0.2,3.3-0.7,4.5s-1,2.2-1.8,2.9c-0.7,0.7-1.4,1.2-2.2,1.4c-1,0.3-2.4,0.4-4.3,0.4h-2.7V139H373z M377.1,114.7v8.3h2.3c1.7,0,2.8-0.2,3.3-0.4c0.6-0.3,1-0.8,1.3-1.5c0.3-0.6,0.5-1.4,0.5-2.2c0-1.1-0.2-2-0.7-2.7c-0.4-0.6-1-1.1-1.7-1.3c-0.5-0.1-1.5-0.2-3-0.2C379.1,114.7,377.1,114.7,377.1,114.7z M408.3,139h-4.5l-1.8-6.7h-8.3L392,139h-4.4l8-29.2h4.4L408.3,139z M400.6,127.4l-2.8-10.9l-2.8,10.9H400.6z M410.5,109.7h8.3c1.6,0,2.9,0.1,3.7,0.3c0.8,0.2,1.5,0.6,2.2,1.2c0.6,0.6,1.2,1.4,1.6,2.4s0.6,2.2,0.6,3.5s-0.3,2.6-0.8,3.8c-0.5,1.2-1.2,2-2.1,2.6c1.3,0.5,2.2,1.4,2.9,2.6c0.7,1.3,1,2.8,1,4.4c0,1.3-0.2,2.6-0.7,3.9c-0.4,1.3-1,2.2-1.8,3s-1.7,1.2-2.8,1.4c-0.7,0.1-2.4,0.1-5,0.2h-7v-29.3H410.5z M414.7,114.6v6.7h2.7c1.6,0,2.6,0,3-0.1c0.7-0.1,1.3-0.4,1.7-1c0.4-0.6,0.6-1.3,0.6-2.3c0-0.9-0.2-1.7-0.5-2.2c-0.4-0.5-0.9-0.9-1.6-1c-0.4-0.1-1.6-0.1-3.6-0.1H414.7z M414.7,126.2v7.8h3.9c1.5,0,2.5-0.1,2.9-0.2c0.6-0.1,1.1-0.6,1.5-1.2c0.4-0.6,0.6-1.5,0.6-2.5c0-0.9-0.2-1.6-0.4-2.2c-0.3-0.6-0.7-1.1-1.3-1.3c-0.6-0.3-1.8-0.4-3.7-0.4C418.2,126.2,414.7,126.2,414.7,126.2z M432.1,109.7h14.5V139h-4.2v-24.3h-6.2v12.5c0,3.6-0.1,6.1-0.3,7.5c-0.2,1.4-0.6,2.6-1.2,3.3c-0.7,0.8-1.7,1.2-3.1,1.2c-0.5,0-1.4-0.1-2.7-0.3v-4.5h0.9c0.9,0,1.5-0.1,1.8-0.4c0.3-0.4,0.4-1.2,0.4-2.5v-5v-16.8H432.1z M450.9,139v-29.2h15.3v4.9h-11.1v6.5h10.4v4.9h-10.4v8h11.5v4.9H450.9z M470.1,139v-29.2h4.2v11.5h8.2v-11.5h4.2V139h-4.2v-12.8h-8.2V139H470.1z M491,109.7h3.9v19.4l8.4-19.4h4.2V139h-3.9v-19.1l-8.4,19.1H491V109.7z M524.1,139v-12.2h-0.8c-1.3,0-2.2,0.3-2.8,0.8c-0.5,0.6-1.5,2.2-2.8,5l-3,6.4h-5l2.5-5.7c1-2.3,1.8-3.9,2.4-4.8c0.6-0.9,1.3-1.7,2.2-2.4c-1.9-0.4-3.3-1.3-4.2-2.8c-0.9-1.5-1.3-3.3-1.3-5.3c0-1.8,0.3-3.3,1-4.7c0.6-1.3,1.5-2.3,2.5-2.8s2.6-0.7,4.7-0.7h8.8V139H524.1z M524.1,114.7h-3.3c-1.7,0-2.7,0.1-3.3,0.2c-0.5,0.1-1,0.4-1.3,1c-0.4,0.6-0.6,1.4-0.6,2.4s0.2,1.9,0.5,2.4c0.4,0.6,0.8,1,1.4,1.2c0.6,0.1,1.7,0.2,3.4,0.2h3.1L524.1,114.7L524.1,114.7z"/><g><g><polygon class="st0" points="100.6,40.9 34.1,138.8 166.6,139.2 "/><polygon class="st1" points="94.1,67.9 52.5,129.6 135,129.5 "/></g><g><polygon class="st0" points="128.7,15.1 127.9,15.1 73.7,16 70,16.2 66.6,16.7 62.7,17.4 59.3,18.2 56.4,19.1 54.5,19.9 52.7,20.8 50.5,21.8 48.3,22.9 46.8,23.9 44.8,25.4 43.2,26.6 42,27.5 40.7,28.8 39.4,30 38,31.6 36.1,33.6 35,35.2 33.3,37.7 32.1,39.6 30.9,42 29.5,44.9 28.7,47.3 27.8,50.4 27.2,52.3 26.7,55 26.4,58.1 26.2,62 26.4,66.7 27,70.7 28,74.4 28.9,77.2 30.6,81.1 31.8,83.7 33,85.7 35.2,88.8 37.1,91.1 38.5,92.7 39.8,94.1 41.6,95.7 43.3,97.1 44.7,98.2 47.6,100.3 50.5,102.1 54,103.7 57.5,104.9 60.7,106 63,106.5 64.1,106.9 67.7,107.8 72.3,108.5 74.9,108.6 81.1,109.1 83.4,109.3 92.3,109.5 127.2,109.4 122.8,103.6 101.2,103.6 87.2,103.6 75.8,103 66.3,101.5 61.3,100.3 57.1,98.8 54.1,97.5 51.1,95.7 47.9,93.5 44.7,90.9 42.5,88.6 40,85.7 37.5,81.8 36.1,79 35.2,77.2 34.1,74.4 33.2,71.2 32.8,68.8 32.5,66 32.3,62.8 32.3,59.3 32.6,56.9 33,54.3 33.5,52.3 34.1,50.4 34.8,48.6 35.7,46.2 36.6,44.2 37.6,42.5 38.9,40.3 40.5,38.2 42.3,36 43.9,34.1 45.7,32.5 47.5,31 49.4,29.6 52,28.1 53.3,27.2 55,26.4 56.9,25.5 58.8,24.8 61.1,24.1 62.8,23.6 65.6,22.7 67.9,22.2 70.6,21.7 73.3,21.5 76.5,21.3 124.5,20.8 "/><polygon class="st0" points="135.8,4 72.1,4.5 67.3,5 65.2,5.2 62.5,5.6 60.7,5.9 58.2,6.4 56.2,7 54.2,7.6 52.3,8.2 50.4,8.9 48.7,9.6 46.6,10.7 45,11.4 43.4,12.3 41.5,13.4 40.1,14.4 37,16.4 35.5,17.6 33.7,19 32.3,20.3 31,21.7 29.8,22.9 28.5,24.3 27.4,25.6 26.4,26.6 25.3,28.1 24.1,29.8 22.7,31.8 21.6,33.7 20.3,36 19.2,38.2 18.4,40.1 17.5,42.3 16.7,44.5 15.6,48.1 15,50.8 14.6,53.3 14.3,55.6 14.1,57.9 14,59.9 14,63.1 14.1,65.1 14.4,68.1 14.8,70.9 15.2,73.5 15.6,75.1 16.4,78 17.5,81.1 18.3,82.8 19.1,84.8 20.8,88.2 22.3,90.8 24.2,93.6 26,96 28.2,98.6 29.9,100.5 31.5,102 33.1,103.5 34.4,104.7 36.3,106 40.4,109 43,110.6 45.3,111.8 48,113.2 51,114.8 55,116.6 58.5,117.9 62,118.8 66.4,119.5 71.5,120.2 76.6,120.4 141.2,120.4 137.8,115.2 75.8,114.7 71.2,114 67.5,113.6 64.9,113.1 63.1,112.7 60.3,112.2 58.8,111.7 56.9,111.1 55.2,110.5 53.4,109.8 52,109.2 50.6,108.6 48,107.4 46.1,106.2 44.4,105.2 43.1,104.4 41.6,103.3 40.2,102.2 38.9,101.1 37.3,99.7 36.1,98.6 34.8,97.4 33.2,95.5 31.5,93.5 29.7,91.2 28,88.6 26.6,86.3 25.4,83.9 24.4,81.8 23.3,79 22.5,76.4 22,74.6 21.5,72.8 21.1,71.1 20.8,68.9 20.4,66.4 20.2,64.3 20.1,61.7 20.4,57.3 20.7,55.3 21.1,52.5 21.6,50.1 22.2,47.7 23.1,45.2 23.9,42.7 24.9,40.5 26.1,38 27.6,35.5 29.1,33 30.7,30.9 31.9,29.3 33.9,26.9 34.9,25.7 37,23.8 39.3,21.7 41.4,20.2 43.8,18.5 46.5,16.9 48.9,15.6 51.1,14.7 54.3,13.3 57.9,12.1 61.3,11.1 63.9,10.6 68.3,10 72.2,9.7 76.7,9.6 132.2,9.4 "/><polygon class="st0" points="73.5,26.7 68.2,27.4 65.7,28 63.4,28.8 61.4,29.4 58.8,30.4 57.1,31.3 54,33 52.2,34.3 49.8,36.2 47.9,38 46.1,40.2 44,43.3 42.8,45.1 41.5,47.8 39.9,51.7 39.1,55.1 38.5,58.3 38.4,60.2 38.4,63.4 38.6,66.1 39,68.8 39.7,71.4 40.7,74.2 41.7,76.5 42.9,78.8 44.4,81.1 46.7,84.2 49.1,86.9 51.2,88.6 54,90.7 56.6,92.1 59.1,93.4 61.8,94.5 65.9,95.7 69.9,96.6 75.3,97.3 80.9,97.5 119.6,97.8 116.2,92.8 80.9,92.4 76.4,92.3 72,91.8 67.4,90.5 62.7,89.1 60.7,88.2 57.7,86.6 54.8,84.5 51.6,81.4 49.5,78.7 48.1,76.5 47,74.3 45.9,72.1 45.1,69.3 44.4,66.3 44.2,63.9 44.2,59.7 44.6,56.8 45.1,54.7 45.6,52.5 46.5,50.5 47.9,47.5 49.6,45.1 51.7,42.4 54.7,39.6 56.8,37.9 60.5,35.7 64.7,33.7 70.1,32.3 74.5,31.8 79.9,31.4 117.7,31.2 121.2,26.1 "/></g></g></g></g><g id="Треугольник"></g></svg>