<?xml version="1.0" encoding="utf-8"?>
<!-- Generator: Adobe Illustrator 21.1.0, SVG Export Plug-In . SVG Version: 6.00 Build 0)  -->
<svg version="1.1" id="Слой_1" xmlns="http://www.w3.org/2000/svg" xmlns:xlink="http://www.w3.org/1999/xlink" x="0px" y="0px"
	 viewBox="0 0 524.4 133.2" style="enable-background:new 0 0 524.4 133.2;" xml:space="preserve">
<style type="text/css">
	.st0{fill-rule:evenodd;clip-rule:evenodd;fill:#194D8C;}
	.st1{fill:#194D8C;stroke:#184D8D;stroke-miterlimit:10;}
	.st2{fill:#124D8D;}
</style>
<g>
	<g>
		<polygon class="st0" points="111.1,13.7 110.4,13.7 59.1,14.6 55.6,14.8 52.3,15.3 48.7,15.9 45.5,16.7 42.7,17.5 40.9,18.3 
			39.2,19.2 37.2,20.1 35.1,21.2 33.6,22.1 31.7,23.5 30.2,24.6 29.1,25.4 27.8,26.7 26.6,27.8 25.3,29.3 23.5,31.3 22.5,32.7 
			20.8,35.2 19.7,36.9 18.6,39.2 17.3,42 16.4,44.2 15.6,47.2 15.1,48.9 14.6,51.5 14.3,54.4 14.1,58.1 14.3,62.6 14.9,66.3 
			15.8,69.9 16.7,72.6 18.3,76.2 19.4,78.6 20.5,80.5 22.6,83.5 24.4,85.7 25.8,87.2 27,88.5 28.7,90 30.3,91.3 31.6,92.4 
			34.4,94.4 37.2,96 40.4,97.6 43.7,98.7 46.8,99.7 48.9,100.2 50,100.6 53.4,101.4 57.7,102.1 60.2,102.2 66.1,102.7 68.3,102.8 
			76.6,103 109.7,103 105.5,97.5 85,97.5 71.8,97.5 61,96.9 52,95.5 47.4,94.3 43.3,92.9 40.5,91.7 37.7,90 34.7,87.9 31.7,85.4 
			29.5,83.2 27.2,80.5 24.9,76.8 23.5,74.2 22.6,72.5 21.6,69.8 20.8,66.8 20.3,64.6 20.1,61.9 19.9,58.8 19.9,55.6 20.2,53.3 
			20.5,50.9 21.1,48.9 21.6,47.2 22.2,45.4 23.1,43.2 24,41.3 24.9,39.7 26.1,37.6 27.6,35.6 29.3,33.5 30.9,31.7 32.6,30.2 
			34.3,28.8 36,27.5 38.5,26 39.8,25.2 41.4,24.4 43.2,23.6 45,22.9 47.1,22.3 48.7,21.8 51.4,20.9 53.6,20.5 56.1,20 58.7,19.8 
			61.7,19.7 107.1,19.2 		"/>
		<polygon class="st0" points="117.8,3.3 57.5,3.7 53,4.2 51,4.4 48.5,4.7 46.7,5 44.4,5.6 42.4,6.1 40.6,6.6 38.8,7.3 37,7.9 
			35.4,8.6 33.4,9.5 31.9,10.3 30.4,11.1 28.6,12.2 27.3,13 24.4,15 23,16.2 21.2,17.5 19.9,18.7 18.6,20 17.5,21.1 16.3,22.4 
			15.2,23.6 14.3,24.6 13.2,26.1 12.1,27.7 10.8,29.6 9.8,31.4 8.5,33.5 7.5,35.6 6.7,37.4 5.9,39.5 5.1,41.6 4.1,45 3.6,47.6 
			3.2,49.8 2.9,52 2.7,54.2 2.6,56.1 2.6,59.2 2.7,61.1 2.9,63.9 3.3,66.6 3.8,69 4.1,70.5 4.8,73.2 5.9,76.2 6.6,77.8 7.4,79.7 
			9,82.9 10.5,85.4 12.2,88 13.9,90.3 16.1,92.8 17.6,94.5 19.2,96 20.6,97.4 21.9,98.5 23.6,99.8 27.6,102.6 30,104.1 32.1,105.2 
			34.8,106.6 37.6,108.1 41.4,109.8 44.7,111 48,111.8 52.1,112.5 57,113.1 61.8,113.4 122.9,113.3 119.7,108.4 61,107.9 
			56.7,107.3 53.2,106.9 50.7,106.4 49,106.1 46.4,105.6 44.9,105.2 43.2,104.6 41.5,104 39.9,103.4 38.5,102.8 37.2,102.2 
			34.8,101 33,100 31.4,99 30.1,98.2 28.7,97.2 27.3,96.1 26.1,95.1 24.6,93.8 23.5,92.8 22.3,91.6 20.7,89.8 19.2,87.9 17.5,85.8 
			15.8,83.3 14.5,81.1 13.3,78.8 12.4,76.9 11.4,74.2 10.6,71.8 10.1,70 9.7,68.4 9.3,66.7 9,64.7 8.6,62.3 8.4,60.3 8.4,57.9 
			8.7,53.7 8.9,51.8 9.3,49.1 9.8,46.8 10.3,44.6 11.2,42.2 12,39.8 12.9,37.8 14.1,35.4 15.4,33.1 16.9,30.7 18.4,28.7 19.5,27.2 
			21.4,24.9 22.4,23.8 24.3,21.9 26.5,20 28.5,18.6 30.8,17 33.3,15.5 35.6,14.3 37.6,13.3 40.7,12 44.1,10.9 47.3,10 49.7,9.5 
			53.9,8.9 57.6,8.6 61.9,8.6 114.4,8.4 		"/>
		<polygon class="st0" points="58.8,24.7 53.8,25.4 51.5,26 49.3,26.7 47.4,27.3 45,28.3 43.3,29.1 40.4,30.7 38.8,31.9 36.4,33.7 
			34.6,35.5 32.9,37.5 30.9,40.4 29.8,42.1 28.6,44.6 27,48.4 26.3,51.6 25.8,54.7 25.6,56.4 25.7,59.4 25.9,62 26.2,64.6 26.9,67 
			27.8,69.6 28.8,71.8 29.9,74.1 31.3,76.2 33.5,79.2 35.8,81.6 37.8,83.3 40.4,85.2 42.9,86.7 45.2,87.8 47.8,88.9 51.7,90 
			55.5,90.9 60.5,91.6 65.9,91.7 102.5,92 99.3,87.2 65.9,86.9 61.6,86.8 57.5,86.3 53.1,85.2 48.7,83.8 46.8,82.9 43.9,81.4 
			41.1,79.4 38.2,76.5 36.2,73.9 34.9,71.9 33.8,69.7 32.8,67.7 32,65 31.3,62.2 31.1,59.9 31.1,55.9 31.5,53.2 32,51.3 32.5,49.2 
			33.3,47.3 34.7,44.4 36.3,42.1 38.2,39.5 41.1,37 43.1,35.3 46.6,33.3 50.5,31.4 55.7,30 59.9,29.5 64.9,29.2 100.7,29 104,24.2 
					"/>
	</g>
	<polygon class="st0" points="21.6,130.8 84.5,38.2 146.9,131.1 21.6,130.8 35.8,126.7 39,122 117.1,122 78.3,63.7 35.8,126.7 	"/>
</g>
<g>
	<path class="st1" d="M238.7,77.1h-43.1v-4c2-0.1,4.4-0.5,7.1-1c2.7-0.5,4.1-1.2,4.1-2c0-0.3,0-0.6-0.1-0.9
		c-0.1-0.3-0.2-0.8-0.5-1.4l-6.8-15.2h-27.3c-0.6,1.4-1.3,3.1-2.1,5c-0.8,1.9-1.4,3.6-2,5.1c-0.7,1.9-1.1,3.3-1.2,4.2
		c-0.1,0.9-0.2,1.5-0.2,1.8c0,1.1,0.9,2,2.7,2.8s4.8,1.3,9,1.7v4h-32.5v-4c1.2-0.1,2.6-0.2,4.2-0.5c1.5-0.3,2.8-0.7,3.7-1.2
		c1.5-0.8,2.8-1.8,3.9-3c1.1-1.2,1.9-2.6,2.6-4.3c4.3-9.7,8.6-19.4,13-29.1c4.3-9.7,9.1-20.4,14.4-32.1h11.2
		c7.3,16.6,13,29.7,17.1,39.3c4.1,9.6,7.6,17.6,10.5,24c0.5,1,1.1,2,1.8,2.8c0.7,0.8,1.8,1.6,3.2,2.4c1,0.6,2.2,1,3.6,1.2
		c1.4,0.3,2.6,0.4,3.7,0.5V77.1z M197.2,47.5L185.7,21l-11.3,26.5H197.2z"/>
	<path class="st1" d="M327.6,47.4c-1.2,0.1-2.2,0.2-3.1,0.4c-0.9,0.1-2,0.4-3.3,0.8c-1.5,0.4-2.5,1.2-3,2.2c-0.5,1-0.7,2.1-0.7,3.3
		v8.5c0,1.7,0,3.1,0.1,4.2c0,1.1,0.1,2.3,0.2,3.9c-3.7,2.1-9.2,4-16.5,5.8s-13.9,2.7-20,2.7c-5.7,0-11.1-0.8-16.1-2.4
		c-5-1.6-9.4-4-13.2-7.3c-3.8-3.2-6.8-7.2-8.9-11.9c-2.2-4.8-3.3-10.2-3.3-16.3c0-5.7,1-11,3.1-15.9c2-4.9,5-9,8.9-12.6
		c3.8-3.5,8.4-6.2,13.9-8.1c5.4-1.9,11.5-2.8,18.1-2.8c4.5,0,8.7,0.5,12.5,1.5c3.8,1,7,2.1,9.5,3.3l3.5-2.8h4.9l0.5,26.7h-4.9
		c-2.8-8-6.2-14-10.1-17.9c-3.9-3.9-8.9-5.8-14.9-5.8c-7.1,0-12.6,2.9-16.5,8.7c-3.9,5.8-5.8,13.8-5.8,23.9
		c0,10.8,1.9,19.2,5.7,25.3s9.2,9.1,16.2,9.1c3.3,0,6.2-0.5,8.7-1.4c2.5-0.9,4.5-2,5.9-3.2V54.5c0-1.2-0.2-2.3-0.7-3.1
		c-0.5-0.8-1.4-1.6-2.9-2.2c-1.1-0.5-2.5-0.9-4.2-1.2c-1.7-0.3-3.1-0.5-4.2-0.7v-4h41.1V47.4z"/>
	<path class="st1" d="M417.5,77.1h-43.1v-4c2-0.1,4.4-0.5,7.1-1c2.7-0.5,4.1-1.2,4.1-2c0-0.3,0-0.6-0.1-0.9
		c-0.1-0.3-0.2-0.8-0.5-1.4l-6.8-15.2h-27.3c-0.6,1.4-1.3,3.1-2.1,5c-0.8,1.9-1.4,3.6-2,5.1c-0.7,1.9-1.1,3.3-1.2,4.2
		c-0.1,0.9-0.2,1.5-0.2,1.8c0,1.1,0.9,2,2.7,2.8s4.8,1.3,9,1.7v4h-32.5v-4c1.2-0.1,2.6-0.2,4.2-0.5c1.5-0.3,2.8-0.7,3.7-1.2
		c1.5-0.8,2.8-1.8,3.9-3c1.1-1.2,1.9-2.6,2.6-4.3c4.3-9.7,8.6-19.4,13-29.1c4.3-9.7,9.1-20.4,14.4-32.1h11.2
		c7.3,16.6,13,29.7,17.1,39.3c4.1,9.6,7.6,17.6,10.5,24c0.5,1,1.1,2,1.8,2.8c0.7,0.8,1.8,1.6,3.2,2.4c1,0.6,2.2,1,3.6,1.2
		s2.6,0.4,3.7,0.5V77.1z M375.9,47.5L364.5,21l-11.3,26.5H375.9z"/>
	<path class="st1" d="M491.8,24.8h-4.3c-1.2-3.1-3-6.5-5.5-10.1c-2.5-3.6-4.9-5.5-7-5.8c-1.2-0.1-2.7-0.3-4.4-0.4
		c-1.7-0.1-3.2-0.2-4.5-0.2h-2.6v57.5c0,1.2,0.2,2.3,0.7,3.3c0.5,0.9,1.4,1.7,2.8,2.2c0.9,0.3,2.2,0.6,4,1c1.8,0.3,3.3,0.6,4.6,0.7
		v4h-44.1v-4c1.1-0.1,2.6-0.2,4.5-0.4c2-0.2,3.3-0.4,4-0.7c1.5-0.5,2.4-1.3,2.9-2.2c0.5-0.9,0.7-2,0.7-3.3v-58h-2.6
		c-1.3,0-2.8,0.1-4.5,0.2c-1.7,0.1-3.2,0.2-4.4,0.4c-2.2,0.3-4.5,2.2-7,5.8c-2.5,3.6-4.4,6.9-5.5,10.1h-4.3v-21h76.7V24.8z"/>
</g>
<g>
	<path class="st2" d="M170.5,120.9l4.7,0.7c-1,6.9-4.4,10.4-10.2,10.4c-3.8,0-6.6-1.5-8.5-4.4c-1.9-2.9-2.8-6.8-2.8-11.7
		c0-5.2,1-9.3,2.9-12.1s4.8-4.2,8.5-4.2c5.7,0,9.1,3.5,10,10.6l-4.8,0.7c-0.5-4.7-2.3-7.1-5.2-7.1c-4,0-6,4.1-6,12.3
		c0,7.6,2,11.5,6,11.5c1.6,0,2.8-0.6,3.6-1.7C169.6,124.8,170.1,123.1,170.5,120.9z"/>
	<path class="st2" d="M200.8,115.8c0,5.3-1,9.3-2.9,12.1c-1.9,2.7-4.7,4.1-8.3,4.1c-3.6,0-6.4-1.4-8.3-4.1
		c-1.9-2.7-2.9-6.7-2.9-12.1c0-5.3,1-9.3,2.9-12s4.7-4.1,8.3-4.1c3.6,0,6.4,1.4,8.3,4.1C199.9,106.5,200.8,110.5,200.8,115.8z
		 M195.4,115.8c0-3.7-0.4-6.6-1.3-8.7c-0.9-2.1-2.4-3.2-4.5-3.2s-3.6,1.1-4.5,3.2s-1.3,5-1.3,8.7c0,3.6,0.4,6.5,1.3,8.7
		c0.8,2.2,2.4,3.2,4.6,3.2c2.1,0,3.6-1,4.4-3.1S195.4,119.6,195.4,115.8z"/>
	<path class="st2" d="M205.6,100.2h6.1l10.2,22.4v-22.4h4.3v31.1h-4.8l-11.5-24.9v24.9h-4.3V100.2z"/>
	<path class="st2" d="M228.3,100.2h19v4.4h-7v26.8h-5.2v-26.8h-6.9V100.2z"/>
	<path class="st2" d="M249.5,100.2h9.4c3.4,0,5.9,0.8,7.5,2.3c1.6,1.5,2.4,3.7,2.4,6.6c0,3.8-1.6,6.5-4.8,8.1l5.9,14.1h-5.6l-4.8-13
		h-4.9v13h-5.2V100.2z M254.7,104.2v10.2h3.9c1.8,0,3.1-0.5,3.9-1.5c0.8-1,1.2-2.2,1.2-3.8c0-3.3-1.7-4.9-5.1-4.9H254.7z"/>
	<path class="st2" d="M295.1,115.8c0,5.3-1,9.3-2.9,12.1c-1.9,2.7-4.7,4.1-8.3,4.1c-3.6,0-6.4-1.4-8.3-4.1
		c-1.9-2.7-2.9-6.7-2.9-12.1c0-5.3,1-9.3,2.9-12s4.7-4.1,8.3-4.1c3.6,0,6.4,1.4,8.3,4.1C294.2,106.5,295.1,110.5,295.1,115.8z
		 M289.7,115.8c0-3.7-0.4-6.6-1.3-8.7c-0.9-2.1-2.4-3.2-4.5-3.2c-2.1,0-3.6,1.1-4.5,3.2s-1.3,5-1.3,8.7c0,3.6,0.4,6.5,1.3,8.7
		c0.8,2.2,2.4,3.2,4.6,3.2c2.1,0,3.6-1,4.4-3.1C289.3,122.5,289.7,119.6,289.7,115.8z"/>
	<path class="st2" d="M300,100.2h5.2V127h11v4.4H300V100.2z"/>
	<path class="st2" d="M346.4,107.2l-4.4,1.5c-0.5-1.7-1.2-2.9-2-3.7c-0.8-0.8-2-1.2-3.5-1.2c-1.4,0-2.4,0.4-3.1,1.2
		c-0.7,0.8-1.1,1.7-1.1,2.8c0,1.1,0.4,2.1,1.2,2.7c0.8,0.7,2.5,1.5,5,2.4c2.1,0.8,3.7,1.6,4.9,2.3c1.1,0.7,2.1,1.7,2.8,2.9
		c0.7,1.2,1.1,2.6,1.1,4.3c0,2.6-0.9,4.8-2.8,6.7s-4.4,2.8-7.8,2.8c-5.7,0-9.3-2.9-10.7-8.7l4.6-1.3c0.8,3.8,2.9,5.7,6.3,5.7
		c1.7,0,2.9-0.4,3.8-1.3c0.9-0.9,1.3-1.9,1.3-3.2c0-0.9-0.3-1.8-0.9-2.6s-2.1-1.6-4.4-2.5c-2.5-0.9-4.3-1.7-5.4-2.4
		c-1.1-0.7-2-1.6-2.8-2.9s-1.2-2.7-1.2-4.4c0-2.5,0.9-4.6,2.6-6.2c1.7-1.7,4-2.5,6.9-2.5C341.8,99.7,345,102.2,346.4,107.2z"/>
	<path class="st2" d="M347.3,100.2h5.6l5.7,13l5.8-13h4.9l-8.6,18v13.2h-5.2v-13.2L347.3,100.2z"/>
	<path class="st2" d="M389.4,107.2l-4.4,1.5c-0.5-1.7-1.2-2.9-2-3.7c-0.8-0.8-2-1.2-3.5-1.2c-1.4,0-2.4,0.4-3.1,1.2
		c-0.7,0.8-1.1,1.7-1.1,2.8c0,1.1,0.4,2.1,1.2,2.7c0.8,0.7,2.5,1.5,5,2.4c2.1,0.8,3.7,1.6,4.9,2.3c1.1,0.7,2.1,1.7,2.8,2.9
		c0.7,1.2,1.1,2.6,1.1,4.3c0,2.6-0.9,4.8-2.8,6.7s-4.4,2.8-7.8,2.8c-5.7,0-9.3-2.9-10.7-8.7l4.6-1.3c0.8,3.8,2.9,5.7,6.3,5.7
		c1.7,0,2.9-0.4,3.8-1.3c0.9-0.9,1.3-1.9,1.3-3.2c0-0.9-0.3-1.8-0.9-2.6s-2.1-1.6-4.4-2.5c-2.5-0.9-4.3-1.7-5.4-2.4
		c-1.1-0.7-2-1.6-2.8-2.9s-1.2-2.7-1.2-4.4c0-2.5,0.9-4.6,2.6-6.2c1.7-1.7,4-2.5,6.9-2.5C384.7,99.7,388,102.2,389.4,107.2z"/>
	<path class="st2" d="M391.6,100.2h19v4.4h-7v26.8h-5.2v-26.8h-6.9V100.2z"/>
	<path class="st2" d="M412.8,100.2h17.8v4.1H418v8.9h9.9v4.2H418v9.7h12.9v4.2h-18V100.2z"/>
	<path class="st2" d="M434.2,100.2h7.6l6.2,22.4l6.4-22.4h7.3v31.1h-4.8v-26.6l-7.4,26.6h-3.7l-7.3-26.6v26.6h-4.3V100.2z"/>
	<path class="st2" d="M486.3,107.2l-4.4,1.5c-0.5-1.7-1.2-2.9-2-3.7c-0.8-0.8-2-1.2-3.5-1.2c-1.4,0-2.4,0.4-3.1,1.2
		c-0.7,0.8-1.1,1.7-1.1,2.8c0,1.1,0.4,2.1,1.2,2.7c0.8,0.7,2.5,1.5,5,2.4c2.1,0.8,3.7,1.6,4.9,2.3c1.1,0.7,2.1,1.7,2.8,2.9
		c0.7,1.2,1.1,2.6,1.1,4.3c0,2.6-0.9,4.8-2.8,6.7s-4.4,2.8-7.8,2.8c-5.7,0-9.3-2.9-10.7-8.7l4.6-1.3c0.8,3.8,2.9,5.7,6.3,5.7
		c1.7,0,2.9-0.4,3.8-1.3c0.9-0.9,1.3-1.9,1.3-3.2c0-0.9-0.3-1.8-0.9-2.6s-2.1-1.6-4.4-2.5c-2.5-0.9-4.3-1.7-5.4-2.4
		c-1.1-0.7-2-1.6-2.8-2.9s-1.2-2.7-1.2-4.4c0-2.5,0.9-4.6,2.6-6.2c1.7-1.7,4-2.5,6.9-2.5C481.6,99.7,484.9,102.2,486.3,107.2z"/>
</g>
<g>
</g>
<g>
</g>
<g>
</g>
<g>
</g>
<g>
</g>
<g>
</g>
<g>
</g>
<g>
</g>
<g>
</g>
<g>
</g>
<g>
</g>
<g>
</g>
<g>
</g>
<g>
</g>
<g>
</g>
</svg>
